FILE "Lunar - The Silver Star (1992)(Game Arts)(JP).img" BINARY
  TRACK 01 MODE1/2352
    INDEX 01 00:00:00
  TRACK 02 AUDIO
    PREGAP 00:02:00
    INDEX 01 03:07:01
  TRACK 03 AUDIO
    INDEX 00 03:18:47
    INDEX 01 03:20:46
  TRACK 04 AUDIO
    INDEX 00 05:05:28
    INDEX 01 05:07:27
  TRACK 05 AUDIO
    INDEX 00 06:17:27
    INDEX 01 06:19:26
  TRACK 06 AUDIO
    INDEX 00 07:42:32
    INDEX 01 07:44:31
  TRACK 07 AUDIO
    INDEX 00 09:10:24
    INDEX 01 09:12:23
  TRACK 08 AUDIO
    INDEX 00 10:28:36
    INDEX 01 10:30:35
  TRACK 09 AUDIO
    INDEX 00 11:47:50
    INDEX 01 11:49:49
  TRACK 10 AUDIO
    INDEX 00 13:00:51
    INDEX 01 13:02:50
  TRACK 11 AUDIO
    INDEX 00 14:18:71
    INDEX 01 14:20:70
  TRACK 12 AUDIO
    INDEX 00 15:47:69
    INDEX 01 15:49:68
  TRACK 13 AUDIO
    INDEX 00 17:16:07
    INDEX 01 17:18:06
  TRACK 14 AUDIO
    INDEX 00 18:41:63
    INDEX 01 18:43:62
  TRACK 15 AUDIO
    INDEX 00 19:48:32
    INDEX 01 19:50:31
  TRACK 16 AUDIO
    INDEX 00 20:54:59
    INDEX 01 20:56:58
  TRACK 17 AUDIO
    INDEX 00 22:10:18
    INDEX 01 22:12:17
  TRACK 18 AUDIO
    INDEX 00 22:59:61
    INDEX 01 23:01:60
  TRACK 19 AUDIO
    INDEX 00 24:18:30
    INDEX 01 24:20:29
  TRACK 20 AUDIO
    INDEX 00 25:00:20
    INDEX 01 25:02:19
  TRACK 21 AUDIO
    INDEX 00 25:43:56
    INDEX 01 25:45:55
  TRACK 22 AUDIO
    INDEX 00 27:08:32
    INDEX 01 27:10:31
  TRACK 23 AUDIO
    INDEX 00 28:17:44
    INDEX 01 28:19:43
  TRACK 24 AUDIO
    INDEX 00 29:00:70
    INDEX 01 29:02:69
  TRACK 25 AUDIO
    INDEX 00 29:20:32
    INDEX 01 29:22:31
  TRACK 26 AUDIO
    INDEX 00 29:41:55
    INDEX 01 29:43:54
  TRACK 27 AUDIO
    INDEX 00 30:05:05
    INDEX 01 30:07:04
  TRACK 28 AUDIO
    INDEX 00 30:28:29
    INDEX 01 30:30:28
  TRACK 29 AUDIO
    INDEX 00 31:53:27
    INDEX 01 31:55:26
  TRACK 30 AUDIO
    INDEX 00 32:51:06
    INDEX 01 32:53:05
  TRACK 31 AUDIO
    INDEX 00 34:00:38
    INDEX 01 34:02:37
  TRACK 32 AUDIO
    INDEX 00 34:21:11
    INDEX 01 34:23:10
  TRACK 33 AUDIO
    INDEX 00 34:45:40
    INDEX 01 34:47:39
  TRACK 34 AUDIO
    INDEX 00 35:11:49
    INDEX 01 35:13:48
  TRACK 35 AUDIO
    INDEX 00 35:29:45
    INDEX 01 35:31:44
  TRACK 36 AUDIO
    INDEX 00 35:50:39
    INDEX 01 35:52:38
  TRACK 37 AUDIO
    INDEX 00 36:05:36
    INDEX 01 36:07:35
  TRACK 38 AUDIO
    INDEX 00 37:27:24
    INDEX 01 37:29:23
  TRACK 39 AUDIO
    INDEX 00 38:33:00
    INDEX 01 38:34:74
  TRACK 40 AUDIO
    INDEX 00 38:55:06
    INDEX 01 38:57:05
  TRACK 41 AUDIO
    INDEX 00 39:26:10
    INDEX 01 39:28:09
  TRACK 42 AUDIO
    INDEX 00 39:51:08
    INDEX 01 39:53:07
  TRACK 43 AUDIO
    INDEX 00 40:39:44
    INDEX 01 40:41:43
  TRACK 44 AUDIO
    INDEX 00 41:04:19
    INDEX 01 41:06:18
  TRACK 45 AUDIO
    INDEX 00 41:32:30
    INDEX 01 41:34:29
  TRACK 46 AUDIO
    INDEX 00 41:57:26
    INDEX 01 41:59:25
  TRACK 47 AUDIO
    INDEX 00 42:15:58
    INDEX 01 42:17:57
  TRACK 48 AUDIO
    INDEX 00 43:18:49
    INDEX 01 43:20:48
  TRACK 49 AUDIO
    INDEX 00 46:28:34
    INDEX 01 46:30:33
  TRACK 50 AUDIO
    INDEX 00 46:46:18
    INDEX 01 46:48:17
  TRACK 51 AUDIO
    INDEX 00 47:14:50
    INDEX 01 47:16:49
  TRACK 52 AUDIO
    INDEX 00 47:23:60
    INDEX 01 47:25:59
